<svg width="169" height="53" viewBox="0 0 169 53" fill="none" xmlns="http://www.w3.org/2000/svg">
<path d="M62.062 8.43689H64.8668C65.5301 8.43689 66.0701 8.97699 66.0701 9.64027V39.6206C66.0701 40.0376 66.4113 40.3787 66.8282 40.3787H84.6136C85.2769 40.3787 85.817 40.9188 85.817 41.5821V43.714C85.817 44.3773 85.2769 44.9174 84.6136 44.9174H62.062C61.3988 44.9174 60.8586 44.3773 60.8586 43.714V9.64975C60.8586 8.98647 61.3988 8.44636 62.062 8.44636V8.43689Z" fill="#035C8C"/>
<path d="M114.698 35.7831H96.3158C96.0126 35.7831 95.7378 35.9631 95.6147 36.2379L92.1182 44.1783C91.9287 44.6142 91.4928 44.8985 91.0191 44.8985H88.2996C87.4279 44.8985 86.8499 43.9983 87.2099 43.2024L102.636 9.13807C102.835 8.71168 103.261 8.43689 103.726 8.43689H107.336C107.81 8.43689 108.236 8.71168 108.425 9.13807L123.899 43.2024C124.259 43.9983 123.681 44.8985 122.809 44.8985H119.986C119.512 44.8985 119.076 44.6142 118.886 44.1783L115.39 36.2379C115.267 35.9631 114.992 35.7831 114.689 35.7831H114.698ZM113.012 30.78L106.057 14.975C105.848 14.5012 105.175 14.5012 104.967 14.975L98.012 30.78C97.8414 31.1685 98.1256 31.6139 98.552 31.6139H112.462C112.888 31.6139 113.173 31.178 113.002 30.78H113.012Z" fill="#035C8C"/>
<path d="M130.048 8.43689H132.853C133.517 8.43689 134.057 8.97699 134.057 9.64027V43.7046C134.057 44.3678 133.517 44.908 132.853 44.908H130.048C129.385 44.908 128.845 44.3678 128.845 43.7046V9.64027C128.845 8.97699 129.385 8.43689 130.048 8.43689Z" fill="#035C8C"/>
<path d="M146.432 44.0457C144.29 43.335 142.528 42.4349 141.154 41.3641C140.708 41.0135 140.566 40.4071 140.813 39.9049L141.694 38.0477C142.007 37.375 142.859 37.1381 143.466 37.5645C144.65 38.4173 146.062 39.1279 147.692 39.7154C149.862 40.4924 152.098 40.8904 154.382 40.8904C157.404 40.8904 159.659 40.3787 161.156 39.3553C162.654 38.332 163.393 36.9675 163.393 35.2619C163.393 34.0112 162.985 32.9973 162.17 32.2108C161.355 31.4338 160.351 30.8274 159.148 30.4105C157.954 29.9936 156.258 29.5293 154.069 29.0081C151.321 28.3448 149.113 27.691 147.427 27.0277C145.74 26.3645 144.3 25.3506 143.106 23.9766C141.912 22.6027 141.305 20.755 141.305 18.424C141.305 16.4816 141.817 14.7286 142.84 13.1651C143.864 11.6017 145.418 10.3509 147.502 9.41285C149.587 8.47478 152.174 8.01048 155.263 8.01048C157.414 8.01048 159.536 8.28528 161.621 8.84433C163.307 9.28968 164.805 9.90558 166.103 10.6731C166.624 10.9763 166.832 11.6112 166.605 12.1702L165.79 14.1411C165.515 14.8044 164.738 15.0792 164.113 14.7381C162.928 14.0937 161.678 13.5821 160.37 13.203C158.636 12.7008 156.93 12.445 155.263 12.445C152.306 12.445 150.099 12.9851 148.62 14.0558C147.142 15.136 146.403 16.5194 146.403 18.225C146.403 19.4758 146.82 20.4897 147.654 21.2761C148.488 22.0531 149.521 22.669 150.752 23.0954C151.984 23.5313 153.661 23.9861 155.784 24.4788C158.522 25.1421 160.73 25.7959 162.398 26.4592C164.065 27.1225 165.496 28.1269 166.7 29.4819C167.894 30.8369 168.5 32.6562 168.5 34.9492C168.5 36.8633 167.979 38.6068 166.937 40.1892C165.894 41.7716 164.312 43.0223 162.199 43.9414C160.076 44.8606 157.471 45.3249 154.382 45.3249C151.634 45.3249 148.99 44.8985 146.441 44.0457H146.432Z" fill="#035C8C"/>
<path d="M51.1748 24.6778C50.0757 24.6778 49.185 25.5685 49.185 26.6677C49.185 38.9858 39.16 49.0108 26.8418 49.0108C17.4801 49.0108 9.03746 43.0981 5.83475 34.3144C5.65472 33.8122 5.28518 33.4142 4.80193 33.1868C4.31868 32.9594 3.77856 32.9404 3.27636 33.1205C2.24354 33.4995 1.7129 34.646 2.08244 35.6788C5.85368 46.045 15.8029 53 26.8324 53C41.3488 53 53.1647 41.1841 53.1647 26.6677C53.1647 25.5685 52.274 24.6778 51.1748 24.6778Z" fill="#035C8C"/>
<path d="M51.1748 24.6778H38.7051L34.2043 14.6149C33.8726 13.8758 33.1241 13.421 32.3092 13.4399C31.4943 13.4684 30.7836 13.98 30.5088 14.7475L25.3542 28.9134L21.4219 19.0873C21.1281 18.3482 20.4175 17.8555 19.6215 17.8365H19.5742C18.7972 17.8365 18.077 18.2914 17.7549 19.002L15.187 24.6684H2.49936C1.40021 24.6684 0.509521 25.559 0.509521 26.6582C0.509521 27.7574 1.40021 28.648 2.49936 28.648H16.4757C17.2527 28.648 17.9728 28.1932 18.295 27.4826L19.4605 24.9052L23.5918 35.2335C23.895 35.9915 24.6246 36.4843 25.4395 36.4843H25.4679C26.2923 36.4748 27.0314 35.9442 27.3062 35.1766L32.565 20.7266L35.5877 27.4731C35.9099 28.1932 36.6205 28.648 37.407 28.648H51.1654C52.2645 28.648 53.1552 27.7574 53.1552 26.6582C53.1552 25.559 52.2645 24.6684 51.1654 24.6684L51.1748 24.6778Z" fill="#035C8C"/>
<path d="M51.5822 17.6565C47.811 7.29035 37.8618 0.335358 26.8323 0.335358C12.3159 0.335358 0.5 12.1513 0.5 26.6677C0.5 27.7668 1.3907 28.6575 2.48985 28.6575C3.58901 28.6575 4.47968 27.7668 4.47968 26.6677C4.47968 14.3496 14.5047 4.32453 26.8228 4.32453C36.1846 4.32453 44.6272 10.2277 47.8299 19.021C48.01 19.5232 48.3795 19.9211 48.8628 20.1486C49.346 20.376 49.8861 20.3949 50.3883 20.2149C50.8905 20.0349 51.2885 19.6653 51.5159 19.1821C51.7433 18.6988 51.7623 18.1587 51.5822 17.6565Z" fill="#035C8C"/>
</svg>
