<svg width="141" height="40" viewBox="0 0 141 40" fill="none" xmlns="http://www.w3.org/2000/svg">
<g clip-path="url(#clip0_101_47912)">
<path d="M56.9875 22.1772C56.419 21.7916 55.7502 21.588 55.067 21.5924C54.3089 21.5924 53.6362 21.9423 53.0489 22.642C52.4553 23.3579 52.1412 24.2711 52.1666 25.2074V33.3175H48.9016V19.0794H52.1666V20.3814C53.0792 19.3359 54.2945 18.8132 55.8124 18.8132C56.9265 18.8132 57.7799 18.986 58.3727 19.3318L56.9875 22.1772Z" fill="#A6CBDE"/>
<path d="M72.8203 27.2156H62.8275C62.8889 28.3493 63.2721 29.2311 63.9768 29.861C64.6816 30.4909 65.6303 30.8053 66.823 30.8044C68.313 30.8044 69.4451 30.41 70.2195 29.621L71.4867 32.1602C70.3374 33.1092 68.6206 33.5836 66.3364 33.5836C64.2032 33.5836 62.5158 32.9478 61.2743 31.6761C60.0328 30.4044 59.4139 28.6293 59.4175 26.3508C59.4175 24.1099 60.0988 22.293 61.4613 20.8999C62.8239 19.5069 64.4593 18.8113 66.3676 18.8131C68.3961 18.8131 70.0247 19.4292 71.2536 20.6613C72.4824 21.8935 73.0964 23.4622 73.0955 25.3674C73.065 25.9913 72.9728 26.6105 72.8203 27.2156ZM62.9441 24.7164H69.8156C69.5897 22.6337 68.4575 21.5923 66.4191 21.5923C64.556 21.5923 63.3976 22.6337 62.9441 24.7164Z" fill="#A6CBDE"/>
<path d="M81.5081 33.5837H80.3316L74.009 19.0793H77.5885L80.9334 27.7687L84.525 19.0793H87.9879L81.5081 33.5837Z" fill="#A6CBDE"/>
<path d="M49.8193 13.2409V14.6685H49.1416V10.7845C49.5934 10.7651 49.8572 10.7555 49.9331 10.7555C50.5349 10.7555 50.9754 10.8507 51.2546 11.0313C51.3936 11.1282 51.5052 11.2604 51.5785 11.4147C51.6517 11.5691 51.6839 11.7403 51.672 11.9113C51.672 12.8023 51.1565 13.2474 50.1256 13.2464C50.0497 13.2533 49.9467 13.2478 49.8193 13.2409ZM49.8193 11.3872V12.6285C49.9331 12.6409 50.0239 12.6478 50.0903 12.6478C50.3268 12.6667 50.5634 12.6114 50.768 12.4892C50.8421 12.4283 50.9003 12.3498 50.9374 12.2605C50.9745 12.1713 50.9894 12.074 50.9808 11.9775C50.9808 11.5748 50.6623 11.3734 50.0253 11.3734C49.9565 11.3711 49.8876 11.3739 49.8193 11.3817V11.3872Z" fill="#A6CBDE"/>
<path d="M57.195 14.663L56.1771 13.0603C56.0755 13.0603 55.9318 13.052 55.7475 13.0423V14.663H55.0454V10.7831C55.0834 10.7831 55.2297 10.7762 55.4845 10.7624C55.7407 10.75 55.9453 10.7431 56.1012 10.7431C57.0698 10.7431 57.5541 11.1242 57.5541 11.8865C57.5559 12.1123 57.4855 12.3326 57.3535 12.5141C57.2294 12.6965 57.0535 12.8361 56.8494 12.9141L57.9756 14.663H57.195ZM55.7448 11.3817V12.4589C55.8694 12.4699 55.9657 12.4755 56.0321 12.4755C56.246 12.4901 56.4599 12.4478 56.6528 12.3527C56.7884 12.2713 56.8494 12.1141 56.8494 11.8796C56.8563 11.7992 56.8399 11.7185 56.8024 11.6475C56.7648 11.5764 56.7077 11.5181 56.6379 11.4796C56.428 11.3904 56.2009 11.3513 55.9738 11.3652C55.8972 11.3655 55.8207 11.371 55.7448 11.3817Z" fill="#A6CBDE"/>
<path d="M60.8881 12.6892C60.8736 12.1833 61.0311 11.6878 61.334 11.2865C61.4742 11.1015 61.6555 10.9531 61.8632 10.8536C62.0708 10.754 62.2987 10.7062 62.5281 10.7141C63.0756 10.7141 63.4944 10.887 63.7845 11.2327C64.0745 11.5784 64.2196 12.0639 64.2196 12.6892C64.2196 13.3145 64.0682 13.811 63.7655 14.1788C63.4628 14.5466 63.0327 14.7305 62.4752 14.7305C62.2497 14.7425 62.0247 14.6985 61.8195 14.6024C61.6144 14.5063 61.4352 14.3609 61.2974 14.1788C61.0255 13.8193 60.889 13.3227 60.8881 12.6892ZM61.5902 12.6892C61.5703 13.0553 61.6485 13.42 61.8165 13.7443C61.8827 13.8615 61.979 13.958 62.0951 14.0236C62.2111 14.0892 62.3425 14.1214 62.4752 14.1167C62.624 14.1253 62.7726 14.0965 62.9078 14.0327C63.043 13.969 63.1607 13.8723 63.2505 13.7512C63.4312 13.5085 63.5216 13.1545 63.5216 12.6892C63.5216 11.7798 63.1922 11.3251 62.5335 11.3251C62.396 11.3195 62.2594 11.3507 62.1374 11.4155C62.0154 11.4804 61.9123 11.5767 61.8382 11.6947C61.661 11.9941 61.5747 12.3401 61.5902 12.6892Z" fill="#A6CBDE"/>
<path d="M67.2432 13.765H67.8476C67.9046 13.9912 68.0902 14.1043 68.4047 14.1043C68.4951 14.1136 68.5863 14.098 68.6688 14.0592C68.7512 14.0204 68.822 13.9597 68.8736 13.8837C68.9783 13.6781 69.0252 13.4471 69.0092 13.2161V10.7831H69.6868V13.1954C69.6868 13.7113 69.5789 14.0938 69.3629 14.343C69.147 14.5921 68.8018 14.7163 68.3274 14.7154C68.0511 14.7291 67.7793 14.6399 67.563 14.4643C67.4648 14.3769 67.3856 14.2695 67.3305 14.1491C67.2754 14.0287 67.2457 13.8979 67.2432 13.765Z" fill="#A6CBDE"/>
<path d="M73.8777 11.3941V12.303H75.1382V12.8878H73.8777V14.0506H75.6058V14.6629H73.2014V10.7831H75.6342V11.3941H73.8777Z" fill="#A6CBDE"/>
<path d="M80.5566 11.3941V14.6629H79.8789V11.3941H78.6672V10.7831H81.8238V11.3941H80.5566Z" fill="#A6CBDE"/>
<path d="M84.5387 12.6892C84.5226 12.184 84.6782 11.6886 84.9792 11.2865C85.1193 11.1015 85.3007 10.9531 85.5083 10.8536C85.716 10.754 85.9439 10.7062 86.1733 10.7141C86.7208 10.7141 87.1396 10.887 87.4296 11.2327C87.7197 11.5784 87.8665 12.0639 87.8701 12.6892C87.8701 13.3145 87.7188 13.811 87.4161 14.1788C87.1134 14.5466 86.6833 14.7305 86.1258 14.7305C85.9003 14.7425 85.6753 14.6985 85.4701 14.6024C85.2649 14.5063 85.0858 14.3609 84.948 14.1788C84.6761 13.8193 84.5396 13.3227 84.5387 12.6892ZM85.2408 12.6892C85.2209 13.0553 85.2991 13.42 85.4671 13.7443C85.5333 13.8615 85.6296 13.958 85.7457 14.0236C85.8617 14.0892 85.9931 14.1214 86.1258 14.1167C86.2746 14.1253 86.4232 14.0965 86.5584 14.0327C86.6936 13.969 86.8113 13.8723 86.9011 13.7512C87.0818 13.5085 87.1721 13.1545 87.1721 12.6892C87.1721 11.7798 86.8428 11.3251 86.1841 11.3251C86.0466 11.3195 85.91 11.3507 85.788 11.4155C85.666 11.4804 85.5629 11.5767 85.4888 11.6947C85.3116 11.9941 85.2253 12.3401 85.2408 12.6892Z" fill="#A6CBDE"/>
<path d="M94.2388 14.6671V19.7235H101.253V22.9827H94.2388V29.4569H103.862V32.8637H90.4709V11.2603H104.024V14.6671H94.2388Z" fill="#005C8D"/>
<path d="M107.353 32.8651V11.2603H111.121V29.4583H120.714V32.8651H107.353Z" fill="#005C8D"/>
<path d="M136.148 32.8651L134.598 28.4859H127.322L125.845 32.8651H121.656L130.12 10.9651H131.772L140.311 32.8651H136.148ZM130.945 17.5718L128.394 25.5509H133.5L130.945 17.5718Z" fill="#005C8D"/>
<path d="M15.3436 29.9811C13.6103 28.9097 12.1536 27.4324 11.0947 25.6722C9.99008 27.2763 9.20806 28.908 8.82043 30.4817C11.1082 30.781 13.438 30.6321 15.6974 30.1935C15.5781 30.1231 15.4602 30.0542 15.3436 29.9811Z" fill="#A6CBDE"/>
<path d="M0.271061 22.5302C0.193807 22.0158 0.121975 21.5013 0.0664062 21.0599C0.121975 21.5027 0.195162 22.0171 0.271061 22.5302Z" fill="#A6CBDE"/>
<path d="M34.4688 19.078C36.6088 16.5056 38.4697 13.3057 38.5646 9.84794C38.6432 6.95149 37.2851 4.37916 35.1017 2.58612C34.4457 2.02786 33.7588 1.5084 33.0443 1.03031C32.4062 0.638918 31.7412 0.294599 31.0547 0L31.0276 0.0275853C34.5989 2.96955 34.4511 7.32802 32.1118 11.5182C33.5727 13.5845 34.393 16.0481 34.4674 18.5925H34.4579C34.4674 18.758 34.4688 18.9152 34.4688 19.078Z" fill="#A6CBDE"/>
<path d="M2.79058 27.879C3.2743 28.3426 3.81129 28.7451 4.38986 29.0776C4.41426 27.4294 4.87236 25.6888 5.7208 23.9316C4.97182 23.7072 4.25334 23.3885 3.58209 22.9827C2.95864 24.6281 2.66995 26.2791 2.79058 27.879Z" fill="#A6CBDE"/>
<path d="M0 18.9263C0.00945492 18.2711 0.0567295 17.6601 0.13507 16.6312C0.0432225 17.6808 0 18.2973 0 18.9263Z" fill="#A6CBDE"/>
<path d="M0.714296 19.5125C0.483204 20.4871 0.374812 21.4878 0.391728 22.4903C0.397991 23.4594 0.604883 24.4162 0.998915 25.2985C0.805103 23.9109 0.948768 22.4199 1.39467 20.8848C1.11638 20.4557 0.888059 19.9952 0.714296 19.5125Z" fill="#A6CBDE"/>
<path d="M3.04944 29.4569C3.29019 30.3907 3.67638 31.2791 4.19334 32.0885C4.13235 32.0003 4.07 31.9065 4.0063 31.8127C4.44545 32.4748 4.98159 33.0646 5.5961 33.5616C5.06244 32.7027 4.69745 31.7467 4.52133 30.7465C3.98648 30.3719 3.49299 29.9395 3.04944 29.4569Z" fill="#A6CBDE"/>
<path d="M41.1451 11.1196C40.4437 9.46193 39.581 7.87984 38.57 6.39703C41.076 10.3197 39.4807 15.2519 37.1143 18.8283C36.1887 20.2103 35.1314 21.496 33.9578 22.6668C33.0444 25.77 31.0125 28.4074 28.2692 30.0505C25.5258 31.6936 22.2737 32.2211 19.1644 31.5272C15.4006 32.6816 11.683 33.0665 8.5535 32.4141C8.51179 33.4198 8.69194 34.4222 9.08072 35.3478C21.5213 39.0856 45.5391 24.8005 41.1451 11.1196Z" fill="#A6CBDE"/>
<path d="M2.40576 29.1686L2.48979 29.3466C2.71884 29.7507 2.99668 30.2141 3.28266 30.6748C2.99804 30.2127 2.72291 29.7479 2.4925 29.3438C2.46404 29.2873 2.43964 29.2279 2.40576 29.1686Z" fill="#A6CBDE"/>
<path d="M1.83106 27.9273C1.72534 27.6873 1.62369 27.4515 1.52747 27.2377C1.6264 27.4473 1.72399 27.6873 1.83106 27.9273Z" fill="#A6CBDE"/>
<path d="M42.6305 17.8587C42.583 17.0311 42.3811 15.7098 42.3391 15.5057C43.4152 26.657 22.4157 41.6303 10.0212 36.8842C10.7138 37.7325 11.6639 38.4814 12.8972 39.0911L12.7712 39.0331C13.8053 39.5324 15.017 39.7545 16.146 39.8828C17.3592 40.0149 18.5825 40.0223 19.7972 39.9048C22.5079 39.6607 25.1806 38.9145 27.6947 37.8566C32.7867 35.7229 37.6781 32.1561 40.5243 27.2639C41.2829 25.9797 41.8626 24.5946 42.2469 23.1482C42.6928 21.4282 42.6684 19.6242 42.6305 17.8587Z" fill="#A6CBDE"/>
<path d="M11.2085 38.2732C10.825 38.0566 10.3845 37.7863 9.67432 37.3491C10.3371 37.778 10.7288 38.018 11.2085 38.2732Z" fill="#A6CBDE"/>
<path d="M8.05201 36.1532C7.70233 35.8622 7.30115 35.5022 6.65466 34.9229C7.25643 35.4898 7.59662 35.796 8.05201 36.1532Z" fill="#A6CBDE"/>
<path d="M13.5005 28.5963L13.655 28.7342C13.6021 28.6887 13.5533 28.6431 13.5005 28.5963Z" fill="#005C8D"/>
<path d="M15.6676 30.1741C15.5646 30.1148 15.463 30.0541 15.3613 29.9921C15.4616 30.0541 15.5646 30.1148 15.6676 30.1741Z" fill="#005C8D"/>
<path d="M12.6696 27.7742L12.7641 27.8763L12.6696 27.7742Z" fill="#005C8D"/>
<path d="M13.1548 28.2749C13.209 28.3301 13.2659 28.3825 13.3228 28.4349C13.2659 28.3797 13.209 28.3273 13.1548 28.2749Z" fill="#005C8D"/>
<path d="M11.9269 26.8818C11.939 26.8984 11.9512 26.9163 11.9647 26.9315C11.9444 26.9163 11.9269 26.8956 11.9269 26.8818Z" fill="#005C8D"/>
<path d="M11.4037 26.1591L11.4235 26.188L11.4037 26.1591Z" fill="#005C8D"/>
<path d="M15.0293 29.7811C15.1337 29.8486 15.238 29.919 15.3437 29.9811C15.238 29.9162 15.1337 29.8486 15.0293 29.7811Z" fill="#005C8D"/>
<path d="M14.7256 29.5742L14.9479 29.7259L14.7256 29.5742Z" fill="#005C8D"/>
<path d="M14.399 29.3369C14.4736 29.3935 14.5481 29.4486 14.624 29.5024C14.5481 29.4486 14.4736 29.3935 14.399 29.3369Z" fill="#005C8D"/>
<path d="M14.0562 29.0721C14.1456 29.1438 14.2364 29.21 14.3272 29.2831C14.231 29.2141 14.1456 29.1438 14.0562 29.0721Z" fill="#005C8D"/>
<path d="M13.7797 28.8417L13.9423 28.9797L13.7797 28.8417Z" fill="#005C8D"/>
<path d="M12.1112 27.126L12.176 27.206L12.1112 27.126Z" fill="#005C8D"/>
<path d="M12.3335 27.3922L12.3659 27.4285L12.3335 27.3922Z" fill="#005C8D"/>
<path d="M13.0175 28.137L12.9054 28.0239L13.0175 28.137Z" fill="#005C8D"/>
<path d="M22.3914 31.8182C22.2166 31.8251 22.0418 31.8292 21.8656 31.8292C20.9541 31.8297 20.0453 31.7298 19.1549 31.5313C20.0453 31.7298 20.9541 31.8297 21.8656 31.8292C22.0404 31.8306 22.2166 31.8251 22.3914 31.8182Z" fill="#005C8D"/>
<path d="M25.922 31.1506C25.7864 31.1975 25.6509 31.2435 25.5154 31.2886C25.6509 31.2435 25.7864 31.1975 25.922 31.1506Z" fill="#005C8D"/>
<path d="M26.3409 30.9962C26.2311 31.0389 26.1186 31.0803 26.0074 31.1203C26.1186 31.0803 26.2311 31.0334 26.3409 30.9962Z" fill="#005C8D"/>
<path d="M27.2421 30.6044C27.15 30.6486 27.0592 30.6913 26.9711 30.7327C27.0632 30.6913 27.154 30.6486 27.2421 30.6044Z" fill="#005C8D"/>
<path d="M24.4555 31.5576C24.2997 31.5907 24.1424 31.621 23.9852 31.6486C24.1424 31.621 24.2997 31.5851 24.4555 31.5576Z" fill="#005C8D"/>
<path d="M23.9323 31.6569C23.6044 31.712 23.2714 31.7543 22.9335 31.7838C23.2714 31.7553 23.6044 31.713 23.9323 31.6569Z" fill="#005C8D"/>
<path d="M25.4124 31.3093C25.2701 31.352 25.1265 31.392 24.9814 31.4306C25.1265 31.3962 25.2701 31.3562 25.4124 31.3093Z" fill="#005C8D"/>
<path d="M24.938 31.4472C24.7935 31.484 24.6471 31.5185 24.4989 31.5506C24.6453 31.5185 24.7917 31.484 24.938 31.4472Z" fill="#005C8D"/>
<path d="M26.8206 30.799C26.7013 30.8514 26.582 30.901 26.4614 30.9493C26.582 30.8955 26.7 30.8514 26.8206 30.799Z" fill="#005C8D"/>
<path d="M22.9213 31.7851C22.7492 31.7989 22.577 31.8099 22.4036 31.8182C22.577 31.8099 22.7492 31.7989 22.9213 31.7851Z" fill="#005C8D"/>
<path d="M29.6552 29.0845L29.6383 29.0988L29.6552 29.0845Z" fill="#005C8D"/>
<path d="M28.1461 30.1259C28.0557 30.181 27.9608 30.2348 27.8615 30.2872C27.9563 30.233 28.0512 30.1792 28.1461 30.1259Z" fill="#005C8D"/>
<path d="M28.4818 29.9203C28.4385 29.9479 28.3953 29.9755 28.3467 30.0017L28.4818 29.9203Z" fill="#005C8D"/>
<path d="M27.6785 30.3851L27.459 30.4982L27.6785 30.3851Z" fill="#005C8D"/>
<path d="M28.9332 29.6224L28.8508 29.679L28.9332 29.6224Z" fill="#005C8D"/>
<path d="M13.0193 18.5938H16.0796C16.5034 18.5954 16.9231 18.5091 17.313 18.34C19.4815 17.398 20.9642 15.6243 21.6134 13.2092C21.6283 13.153 21.6611 13.1034 21.7068 13.0685C21.7525 13.0335 21.8084 13.015 21.8655 13.0161C21.9222 13.0151 21.9775 13.0334 22.0227 13.0682C22.0679 13.1029 22.1004 13.1521 22.1149 13.2078C22.7072 15.4146 24.0124 17.1015 25.8895 18.0876L26.025 18.1621L25.8732 18.2145C25.6351 18.2997 25.4032 18.402 25.1793 18.5207L25.1454 18.5387L25.1143 18.5194C23.7066 17.6792 22.5921 16.4124 21.9265 14.896L21.8642 14.7581L21.8032 14.896C21.015 16.6973 19.5994 18.1379 17.8294 18.94C17.7819 18.9607 17.5014 19.0711 17.1653 19.2021C16.8191 19.3368 16.4516 19.4056 16.081 19.4048H13.7227C14.0478 19.9579 14.1843 20.6047 14.1107 21.2448C14.0372 21.8849 13.7578 22.4823 13.3161 22.944C13.0017 23.2769 12.7013 23.613 12.4148 23.9523C12.4758 24.0709 12.5395 24.1895 12.6032 24.3054C13.7385 26.3581 15.5016 27.9773 17.6242 28.9167C19.7468 29.856 22.1128 30.0642 24.3624 29.5095C26.6119 28.9548 28.6219 27.6675 30.0865 25.8436C31.5512 24.0196 32.3903 21.7587 32.4764 19.4048H27.2164C27.1213 19.4046 27.0269 19.4209 26.9372 19.4531C24.4854 20.3303 22.817 22.1758 22.1149 24.7895C22.1004 24.8457 22.0679 24.8954 22.0224 24.9306C21.977 24.9659 21.9213 24.9846 21.8642 24.984C21.8073 24.9851 21.7517 24.9667 21.7064 24.9316C21.6612 24.8966 21.6289 24.847 21.6148 24.7909C21.3471 23.7705 20.8867 22.813 20.2595 21.9716C19.616 21.1171 18.795 20.4177 17.8551 19.9234L17.7196 19.8517L17.8551 19.7979C18.087 19.7054 18.3133 19.599 18.5328 19.4793L18.5653 19.4614L18.5978 19.4807C19.5166 20.0284 20.3151 20.7621 20.9439 21.6365C21.275 22.0968 21.5588 22.5904 21.791 23.1095L21.852 23.2475L21.9143 23.1095C22.702 21.3083 24.1171 19.8677 25.8868 19.0655L25.9329 19.0449L25.9681 19.0255C26.1809 18.9262 26.9168 18.6007 27.4359 18.6007H32.4696C32.4031 16.7718 31.8813 14.9901 30.9534 13.4224C30.0254 11.8547 28.7215 10.5525 27.1639 9.63765C25.6063 8.72283 23.8459 8.22541 22.0478 8.19199C20.2497 8.15857 18.4727 8.59024 16.8833 9.44656C16.7696 9.55419 16.643 9.64686 16.5066 9.72242C16.2762 9.84793 16.0471 9.97758 15.8194 10.1086C14.5421 11.0066 13.4736 12.1784 12.6889 13.5416C11.9043 14.9048 11.4226 16.4264 11.2777 17.9994C11.9067 17.9973 12.5188 18.2063 13.0193 18.5938Z" fill="#005C8D"/>
<path d="M10.2002 14.1084C9.6233 15.5336 9.30463 17.0532 9.25964 18.5938H9.53071C9.84608 18.3467 10.2091 18.17 10.596 18.0752C10.7709 15.8492 11.5817 13.7239 12.9285 11.9609C11.9717 12.6409 11.0582 13.3595 10.2002 14.1084Z" fill="#005C8D"/>
<path d="M17.462 8.4025C19.1497 7.67827 20.985 7.38199 22.8101 7.53914C24.6352 7.69629 26.3955 8.30217 27.9396 9.30469C29.4838 10.3072 30.7656 11.6764 31.6748 13.2944C32.584 14.9125 33.0935 16.7311 33.1594 18.5939H34.4687C34.4046 16.5373 33.8558 14.5265 32.8685 12.7309C31.8812 10.9353 30.4843 9.40742 28.7954 8.27606C27.1066 7.14471 25.1753 6.44298 23.1643 6.22999C21.1532 6.017 19.1213 6.29899 17.2397 7.0522C17.2587 7.08806 17.2804 7.12116 17.298 7.1584C17.4873 7.54294 17.545 7.98079 17.462 8.4025Z" fill="#005C8D"/>
<path d="M33.1595 19.3979C33.0549 22.3417 31.8458 25.1328 29.7808 27.197C27.7158 29.2612 24.9521 30.4417 22.058 30.4955C21.9929 30.4955 21.9292 30.4955 21.8642 30.4955C20.4581 30.4975 19.0642 30.2308 17.7548 29.7093C15.2845 28.7196 13.2323 26.8815 11.954 24.5136C11.6495 24.8989 11.3631 25.2856 11.0947 25.6736C12.2252 27.5569 13.8119 29.1132 15.7028 30.1934C17.5928 31.274 19.7246 31.8402 21.8923 31.8375C24.0601 31.8348 26.1905 31.2631 28.0778 30.1778C29.965 29.0925 31.5454 27.5302 32.6661 25.6419C33.7868 23.7535 34.41 21.603 34.4755 19.3979H33.1663H33.1595Z" fill="#005C8D"/>
<path d="M10.9985 6.45635C11.3582 6.20996 11.6166 5.83786 11.7248 5.41055C11.8329 4.98324 11.7833 4.53039 11.5853 4.13781C11.384 3.74977 11.0512 3.44923 10.6487 3.29197C10.2462 3.1347 9.80123 3.1314 9.39649 3.28267C8.87739 3.48266 8.42471 3.91989 7.99643 4.26195C7.5058 4.64814 7.02556 5.04859 6.55572 5.46328C5.04779 6.77063 3.71375 8.27242 2.58731 9.93072C1.17528 12.0228 0.321974 14.4525 0.111126 16.9815C0.0197404 17.9901 -0.0114895 19.0034 0.0176088 20.0159C0.085467 21.3509 0.254939 22.6785 0.524502 23.9868C-0.357817 18.4504 3.10776 13.3265 6.90403 9.75279C8.18771 8.55346 9.55621 7.45168 10.9985 6.45635Z" fill="#3E94C2"/>
<path d="M17.2995 7.15698C17.0745 6.71033 16.6897 6.36858 16.2244 6.20227C15.7591 6.03596 15.2488 6.05778 14.7989 6.26322C13.6889 6.78044 12.6222 7.51421 11.6111 8.21074C9.6692 9.53643 7.87779 11.0773 6.26979 12.8051C3.45342 15.8532 0.803756 19.9538 0.917603 24.3067C0.956908 25.7812 1.43263 27.0542 2.03304 28.3756C2.64487 29.6752 3.36779 30.9177 4.19343 32.0885C1.87989 28.4404 2.71612 24.0502 4.77216 20.5027C6.82819 16.9553 9.94138 14.0202 13.2796 11.7141C14.2527 11.0419 15.2552 10.418 16.287 9.8424C17.252 9.30311 17.8402 8.25625 17.2995 7.15698Z" fill="#3E94C2"/>
<path d="M13.4733 19.0338C13.1443 18.6372 12.7178 18.3364 12.2373 18.1622C11.7569 17.988 11.2396 17.9466 10.7383 18.0421C9.64586 18.2532 8.97633 19.118 8.29866 19.9428C6.94334 21.6158 5.76284 23.4888 5.04588 25.5453C4.36821 27.5135 4.12967 29.6831 4.7477 31.6982C5.05971 32.7009 5.56056 33.6323 6.2223 34.4402C6.74546 35.0857 7.41635 35.6236 8.05199 36.1532C9.51033 37.3711 11.1693 38.3201 12.8919 39.1035C11.5745 38.4456 10.3588 37.5173 9.5537 36.2512C8.689 34.8926 8.41522 33.2609 8.60497 31.6679C8.98582 28.428 10.951 25.5164 13.0911 23.1854C13.6332 22.5965 14.0398 21.9937 14.1212 21.1675C14.1907 20.3971 13.9578 19.63 13.4733 19.0338Z" fill="#3E94C2"/>
</g>
<defs>
<clipPath id="clip0_101_47912">
<rect width="140.308" height="40" fill="white"/>
</clipPath>
</defs>
</svg>
